# xmcd
#
# Track frame offsets:
#	150
#	19456
#	51393
#	68738
#	89033
#	112107
#	128607
#	145273
#	163108
#	193636
#
# Disc length: 2973 seconds
# Revision: 0
# Processed by: cddbd v1.5.2PL0 Copyright (c) Steve Scherf et al.
# Submitted via: dBpowerAMP V12.0
#
DISCID=960b9b0a
DTITLE=Hush - Hometown
DYEAR=1998
DGENRE=Blues
TTITLE0=Game of love
TTITLE1=My Hometown
TTITLE2=Girl of many words
TTITLE3=New York City
TTITLE4=Heighbor Neighbor
TTITLE5=Learn to treat me right
TTITLE6=Grab your life
TTITLE7=I am about to leave you
TTITLE8=Breaking up somebody 's home
TTITLE9=That 's why I cry
EXTD=
EXTT0=
EXTT1=
EXTT2=
EXTT3=
EXTT4=
EXTT5=
EXTT6=
EXTT7=
EXTT8=
EXTT9=
PLAYORDER=
